<svg width="21" height="20" viewBox="0 0 21 20" fill="none" xmlns="http://www.w3.org/2000/svg">
<path d="M20.4521 10C20.4521 15.2445 16.1797 19.5 10.9043 19.5C5.62891 19.5 1.35645 15.2445 1.35645 10C1.35645 4.75554 5.62891 0.5 10.9043 0.5C16.1797 0.5 20.4521 4.75554 20.4521 10Z" stroke="#BEBEBE"/>
<path d="M10.5507 12.3536C10.746 12.5488 11.0626 12.5488 11.2579 12.3536L14.4398 9.17157C14.6351 8.97631 14.6351 8.65973 14.4398 8.46447C14.2446 8.2692 13.928 8.2692 13.7327 8.46447L10.9043 11.2929L8.07587 8.46447C7.88061 8.2692 7.56403 8.2692 7.36876 8.46447C7.1735 8.65973 7.1735 8.97631 7.36876 9.17157L10.5507 12.3536ZM10.4043 11V12H11.4043V11H10.4043Z" fill="#BEBEBE"/>
</svg>
