<svg width="330" height="420" viewBox="0 0 330 420" fill="none" xmlns="http://www.w3.org/2000/svg">
<path d="M309.279 151.328C309.279 151.328 306.648 150.962 306.648 147.136C306.648 143.31 304.764 136.164 304.764 136.164C304.764 136.131 303.135 123.719 300.884 121.746C298.634 119.773 295.742 108.188 295.742 108.188C295.742 108.188 295.248 101.903 294.239 100.55C293.231 99.1964 291.868 95.8836 289.858 91.1577C287.848 86.4317 279.466 83.1589 279.466 83.1589C279.466 83.1589 264.313 74.3869 260.019 71.5274C259.628 71.2924 259.263 71.0176 258.93 70.7075C258.182 69.7276 254.923 69.7076 254.923 69.7076C254.582 67.5613 254.255 65.095 254.148 62.862C254.148 62.6221 254.148 62.3821 254.115 62.1421C258.903 59.3171 262.51 54.8629 264.273 49.5974C264.353 49.3441 264.42 49.0775 264.493 48.8242C264.78 48.7299 265.044 48.5768 265.268 48.3748C265.493 48.1728 265.672 47.9263 265.796 47.6511C266.183 46.7912 266.19 45.7847 266.67 44.9848C267.231 44.0383 268.3 43.5317 269.141 42.8185C271.265 41.0188 271.813 37.9859 271.713 35.2263C271.646 32.9933 271.285 30.7403 271.425 28.5207L271.466 27.9608C271.506 27.6275 271.552 27.2942 271.612 26.9743C271.94 25.3212 272.654 23.7614 273.055 22.1217C273.456 20.4819 273.496 18.6355 272.561 17.2224C271.192 15.1494 268.34 14.7361 265.836 14.5228C262.997 14.2829 260.459 14.5962 258.643 12.2432C257.793 11.0134 256.836 9.86029 255.784 8.79707C255.41 8.45046 251.777 6.23747 251.777 6.09082C248.231 4.45169 244.212 4.14402 240.457 5.22429C238.574 5.77087 236.798 6.66407 234.887 7.11067C230.767 8.08385 226.025 7.03068 222.526 9.38365C220.575 10.7168 219.407 12.8364 218.311 14.9028C217.421 16.6048 216.517 18.3045 215.6 20.002C214.124 22.7949 212.621 25.6345 212 28.7273C211.87 29.4003 211.789 30.0821 211.76 30.767V30.8003C211.76 31.047 211.76 31.2936 211.76 31.5402V31.8535C211.76 32.0868 211.76 32.3134 211.8 32.5201C211.84 32.7267 211.833 32.7933 211.853 32.9333C211.873 33.0733 211.907 33.3866 211.947 33.5999C211.987 33.8132 212.067 34.1865 212.147 34.4798C212.181 34.6064 212.227 34.7264 212.267 34.8464C212.334 35.073 212.414 35.293 212.501 35.5129C212.548 35.6262 212.595 35.7462 212.648 35.8596C212.748 36.0928 212.868 36.3195 212.989 36.5261C213.042 36.6194 213.082 36.7061 213.136 36.7927C213.322 37.1027 213.527 37.401 213.75 37.6859C215.179 39.4657 217.283 40.5988 218.839 42.2652C218.839 42.3319 218.839 42.3985 218.839 42.4585C218.839 42.6452 218.839 42.8251 218.839 43.0118C218.922 46.7282 219.913 50.3682 221.726 53.6152C223.54 56.8622 226.12 59.6178 229.244 61.6422C229.244 61.8955 229.278 62.1555 229.291 62.4088C229.421 64.3874 229.397 66.3731 229.217 68.3479C228.945 68.0282 228.605 67.7735 228.221 67.6028C227.837 67.432 227.42 67.3495 227 67.3613C226.713 67.3473 226.426 67.372 226.145 67.4347L226.085 67.388V67.448C224.616 67.8079 222.806 69.3344 221.076 73.6737C221.076 73.6737 215.814 79.5928 211.807 79.3461C207.799 79.0995 197.655 85.5052 197.655 85.5052C197.655 85.5052 187.757 91.9175 185.634 98.4499C184.446 102.154 183.023 105.779 181.373 109.302L169.138 134.464L166.88 154.428C166.88 154.428 168.129 163.306 167.882 164.66C167.635 166.013 173.018 178.217 173.018 178.217C173.018 178.217 190.803 209.406 198.069 211.006L198.59 210.639C198.901 210.801 199.23 210.924 199.572 211.006L201.068 209.953C201.157 211.126 201.119 212.306 200.954 213.472C199.952 216.552 201.328 236.648 203.078 240.588C204.828 244.527 204.206 296.179 204.206 296.179L203.959 300.739C203.959 300.739 203.959 300.885 204.019 301.138L203.959 302.218L204.14 302.312C204.327 303.758 204.266 305.225 203.959 306.651C203.332 308.651 203.078 314.303 203.078 314.303C203.078 314.303 198.076 346.218 200.446 352.631C202.817 359.043 204.834 366.068 204.834 366.068C204.834 366.068 207.339 374.067 204.954 375.434C202.57 376.8 195.792 379.093 197.187 382.426C198.456 385.505 203.271 393.757 203.986 394.964L203.926 395.597L202.944 406.216C203.103 407.618 203.484 408.985 204.073 410.268C205.148 412.581 207.238 414.981 211.212 414.721C211.88 414.674 212.655 414.594 213.403 414.494C220.676 413.521 229.631 410.282 229.631 410.282C229.167 409.987 228.74 409.635 228.363 409.235C228.005 408.889 227.722 408.475 227.53 408.016C227.338 407.558 227.242 407.066 227.247 406.569C227.354 404.636 223.728 395.424 222.826 393.158C222.686 392.831 222.612 392.644 222.612 392.644C222.612 392.644 230.88 384.019 229.505 376.373C229.505 376.373 220.355 371.041 223.367 368.115C226.379 365.189 231.762 356.783 231.762 356.783C231.762 356.783 232.009 325.355 231.762 320.662C231.504 317.405 231.659 314.129 232.223 310.91C232.323 310.424 232.443 309.95 232.57 309.484C236.736 310.104 240.941 310.423 245.152 310.437C246.688 310.437 248.251 310.437 249.827 310.344C249.827 310.788 249.847 311.268 249.887 311.783C250.235 319.569 250.882 333.22 251.41 338.293C252.158 345.565 256.292 365.162 256.292 365.162C256.292 365.162 248.405 370.214 257.668 382.666C257.668 382.666 257.668 387.178 257.053 387.832C256.397 389.967 255.869 392.14 255.471 394.337C255.083 396.684 254.923 399.057 255.551 400.29C257.053 403.236 266.069 402.996 266.069 402.996L266.29 402.956C267.992 402.78 269.712 402.944 271.35 403.437C272.988 403.93 274.512 404.743 275.833 405.829C279.259 408.575 292.262 407.369 299.301 406.495C302.06 406.149 303.903 405.829 303.903 405.829C303.992 405.517 304.024 405.192 303.996 404.869C303.923 403.143 302.567 399.357 293.378 395.977C293.378 395.977 284.736 390.178 284.856 385.125H284.676H283.674C284.402 385.085 284.869 385.125 284.869 385.125C284.869 385.125 281.483 372.794 282.866 371.794C284.248 370.794 280.108 357.13 280.108 357.13C280.108 357.13 277.737 334.2 277.61 332.594C277.615 331.215 277.824 329.845 278.231 328.528L277.61 315.956C277.61 315.956 277.49 311.777 277.61 310.417C277.59 309.237 277.494 308.059 277.323 306.891C277.262 306.424 277.202 305.938 277.136 305.458C280.375 304.638 282.478 303.878 282.478 303.878L282.104 260.118C284.856 254.786 285.363 243.087 285.35 234.789C285.35 229.456 285.11 225.51 285.11 225.51L288.87 219.384C288.87 219.384 289.738 212.052 288.362 210.446C287.754 209.719 288.028 208.966 288.529 208.346C288.789 208.14 289.064 207.953 289.351 207.786C289.351 207.786 289.31 207.726 289.264 207.64C289.526 207.421 289.805 207.222 290.099 207.046C290.099 207.046 288.763 204.98 289.958 204.107C291.08 204.867 292.082 205.44 292.843 205.907C292.79 206.393 292.737 206.673 292.737 206.673L293.057 206.007C293.792 206.42 294.239 206.673 294.239 206.673C294.239 206.673 300.13 194.962 300.003 193.235C299.876 191.509 304.01 184.237 304.01 184.237C304.01 184.237 304.511 180.417 306.768 178.817C309.025 177.218 308.518 165.626 308.518 165.626C308.518 165.626 309.146 159.587 310.648 157.121C312.151 154.654 309.279 151.328 309.279 151.328ZM196.573 146.189L196.686 148.982C196.019 147.909 195.538 147.136 195.538 147.136L196.573 146.189Z" fill="url(#paint0_linear_19_45)"/>
<path d="M294.56 201.614L293.117 207.746C293.117 207.746 281.563 201.86 279.48 194.382C277.396 186.903 282.966 184.063 282.966 184.063L293.732 188.616L294.56 201.614Z" fill="white"/>
<path opacity="0.1" d="M294.56 201.614L293.117 207.746C293.117 207.746 281.563 201.86 279.48 194.382C277.396 186.903 282.966 184.063 282.966 184.063L293.732 188.616L294.56 201.614Z" fill="black"/>
<path d="M229.718 410.321C229.718 410.321 219.033 414.241 211.686 414.734C207.786 414.994 205.736 412.608 204.681 410.308C204.104 409.03 203.732 407.669 203.579 406.275L204.534 395.71L205.041 390.085L220.649 386.039L222.86 392.784L223.067 393.297C223.955 395.55 227.514 404.716 227.408 406.629C227.403 407.119 227.498 407.604 227.686 408.057C227.874 408.509 228.152 408.919 228.503 409.262C228.861 409.665 229.27 410.021 229.718 410.321Z" fill="white"/>
<path d="M302.708 404.949C302.734 405.27 302.703 405.593 302.614 405.902C302.614 405.902 279.76 409.708 275.085 405.902C273.767 404.79 272.231 403.966 270.575 403.481C268.918 402.997 267.179 402.863 265.468 403.089C265.468 403.089 256.626 403.329 255.15 400.423C254.536 399.203 254.696 396.837 255.077 394.504C255.465 392.318 255.982 390.157 256.626 388.032L256.98 387.752L259.084 386.065L283.714 385.339H283.901C283.781 390.365 292.262 396.13 292.262 396.13C301.272 399.463 302.601 403.229 302.708 404.949Z" fill="white"/>
<path opacity="0.1" d="M302.708 404.949C302.731 405.27 302.697 405.593 302.607 405.902C302.607 405.902 279.76 409.708 275.085 405.902C273.768 404.791 272.233 403.967 270.578 403.483C268.923 402.998 267.185 402.864 265.475 403.089C265.475 403.089 256.626 403.329 255.157 400.423C254.542 399.197 254.696 396.837 255.077 394.504C258.483 394.844 263.859 395.69 265.969 397.71C269.161 400.783 274.571 403.849 277.89 404.089C280.488 404.256 296.029 404.749 302.708 404.949Z" fill="black"/>
<path opacity="0.1" d="M229.718 410.321C229.718 410.321 219.033 414.241 211.686 414.734C207.786 414.994 205.736 412.608 204.687 410.301C207.405 411.215 211.179 412.174 213.162 411.295C215.513 410.255 223.848 409.582 228.523 409.295C228.879 409.684 229.28 410.028 229.718 410.321Z" fill="black"/>
<path d="M245.573 94.4705C236.757 91.051 225.417 79.7527 228.249 74.4736C228.878 73.1414 229.252 71.7035 229.351 70.2342C229.533 68.2396 229.56 66.2339 229.431 64.2352C229.233 60.9617 228.838 57.703 228.249 54.4767C228.249 54.4767 255.771 55.0966 254.168 59.1426C253.701 60.3291 253.627 62.3888 253.754 64.6951C253.881 67.0014 254.215 69.6077 254.562 71.814C255.043 74.8402 255.524 77.1465 255.524 77.1465C255.524 77.1465 253.841 79.4995 252.853 79.6261C251.864 79.7527 258.222 99.343 245.573 94.4705Z" fill="#CF6F80"/>
<path d="M233.285 308.044C232.837 309.149 232.497 310.294 232.27 311.463C231.713 314.667 231.558 317.927 231.809 321.169C232.056 325.835 231.809 357.103 231.809 357.103C231.809 357.103 226.526 365.442 223.581 368.381C220.636 371.321 229.591 376.6 229.591 376.6C230.927 384.199 222.833 392.784 222.833 392.784C214.605 382.852 204.654 395.237 204.654 395.237C204.654 395.237 199.244 385.905 197.895 382.572C196.546 379.24 203.178 376.933 205.509 375.58C207.84 374.227 205.395 366.248 205.395 366.248C205.395 366.248 203.425 359.256 201.088 352.877C198.75 346.498 203.666 314.743 203.666 314.743C203.666 314.743 203.919 309.104 204.527 307.138C204.834 305.719 204.895 304.258 204.707 302.818C204.667 302.332 204.621 301.925 204.587 301.652C204.554 301.378 204.527 301.252 204.527 301.252L204.621 301.092L207.96 294.879C207.96 294.879 234.888 304.131 233.285 308.044Z" fill="#345264"/>
<path d="M283.908 385.305C283.908 385.305 277.897 385.179 274.691 387.972C271.486 390.765 255.992 388.585 256.659 387.972C257.327 387.358 257.274 382.819 257.274 382.819C248.184 370.434 255.938 365.408 255.938 365.408C255.938 365.408 251.878 345.911 251.143 338.679C250.629 333.627 249.994 320.049 249.654 312.297C249.507 308.964 249.42 306.671 249.42 306.671L256.846 305.178L257.801 304.984L275.713 301.398C275.713 301.398 276.207 304.731 276.541 307.457C276.708 308.621 276.801 309.795 276.822 310.97C276.702 312.303 276.822 316.476 276.822 316.476L277.43 328.987C277.032 330.3 276.828 331.663 276.822 333.033C276.942 334.627 279.273 357.436 279.273 357.436C279.273 357.436 283.327 371.048 281.944 372.027C280.562 373.007 283.908 385.305 283.908 385.305Z" fill="#345264"/>
<path d="M264.807 44.4115C264.812 46.8135 264.434 49.2009 263.685 51.4838C262.012 56.5987 258.581 60.9587 253.998 63.793C249.416 66.6273 243.977 67.7535 238.643 66.9726C233.309 66.1917 228.423 63.5539 224.85 59.5254C221.276 55.497 219.244 50.3372 219.113 44.9581C219.113 44.7715 219.113 44.5982 219.113 44.4115C219.061 41.3837 219.614 38.3759 220.739 35.5636C221.864 32.7512 223.539 30.1906 225.666 28.0311C227.793 25.8716 230.329 24.1564 233.127 22.9856C235.926 21.8148 238.929 21.2118 241.963 21.2118C244.997 21.2118 248.001 21.8148 250.799 22.9856C253.597 24.1564 256.134 25.8716 258.261 28.0311C260.388 30.1906 262.063 32.7512 263.188 35.5636C264.313 38.3759 264.866 41.3837 264.814 44.4115H264.807Z" fill="#CF6F80"/>
<path d="M276.782 138.217L266.704 307.191L253.56 308.051L219.527 210.073L225.11 93.7506L226.285 69.1744L241.419 81.5791L248.892 87.6915L254.736 72.8471L265.602 82.299L276.782 138.217Z" fill="#345264"/>
<path opacity="0.1" d="M233.285 308.044C232.837 309.149 232.497 310.294 232.269 311.464C222.706 309.99 213.417 307.094 204.714 302.872L204.534 302.778L204.594 301.705L204.627 301.145L207.966 294.933C207.966 294.933 234.887 304.131 233.285 308.044Z" fill="black"/>
<path opacity="0.1" d="M257.735 310.017C230.353 314.683 205.275 301.305 205.275 301.305L205.515 296.772C205.515 296.772 206.137 245.387 204.413 241.448C202.69 237.508 201.348 217.531 202.323 214.465C203.298 211.399 198.763 165.419 198.763 165.419L198.029 146.756L171.141 135.884L183.163 110.875C184.786 107.368 186.183 103.761 187.343 100.076C189.434 93.5839 199.137 87.2049 199.137 87.2049C199.137 87.2049 209.088 80.8325 213.022 81.0725C216.956 81.3125 222.111 75.4334 222.111 75.4334C225.918 65.7482 229.364 70.1342 229.364 70.1342C229.364 70.5941 229.364 70.1342 229.177 71.5673C227.842 82.199 250.776 115.794 251.103 116.387L253.287 169.485L255.497 236.682L257.735 310.017Z" fill="black"/>
<path d="M257 310.017C229.618 314.683 204.534 301.305 204.534 301.305L204.781 296.772C204.781 296.772 205.402 245.387 203.672 241.448C201.942 237.508 200.607 217.531 201.589 214.465C202.57 211.399 198.029 165.419 198.029 165.419L197.288 146.756L170.387 135.844L182.408 110.835C184.028 107.327 185.424 103.72 186.589 100.036C188.672 93.5439 198.383 87.1649 198.383 87.1649C198.383 87.1649 208.334 80.7926 212.261 81.0325C216.188 81.2725 221.35 75.3934 221.35 75.3934C225.164 65.7082 229.364 70.0942 229.364 70.0942C229.364 70.5542 228.964 70.7608 229.177 71.5273C232.116 81.8391 250.041 115.754 250.368 116.347L252.579 169.445L254.789 236.642L257 310.017Z" fill="white"/>
<path opacity="0.1" d="M249.62 117.86C246.675 116.634 231.074 98.8564 231.074 98.8564V94.8104C230.506 93.4773 227.134 94.2905 224.396 95.2237L225.571 70.6475L226.907 71.754C229.832 82.0591 249.28 117.267 249.62 117.86Z" fill="black"/>
<path d="M250.361 116.387C247.41 115.161 231.809 97.3833 231.809 97.3833V93.3373C231.241 92.0042 227.868 92.8174 225.13 93.7506L226.312 69.1744L227.648 70.2809C230.58 80.5859 250.034 115.8 250.361 116.387Z" fill="white"/>
<path opacity="0.1" d="M205.275 205.047C205.642 205.047 224.315 203.087 224.315 203.087C224.315 203.087 235.622 225.277 234.881 230.676C234.139 236.075 232.797 240.854 228.249 240.008C223.701 239.161 203.772 240.674 203.772 240.674L205.275 205.047Z" fill="black"/>
<path d="M204.534 203.574C204.901 203.574 223.574 201.614 223.574 201.614C223.574 201.614 234.874 223.81 234.139 229.203C233.405 234.595 232.049 239.381 227.508 238.535C222.966 237.688 203.031 239.201 203.031 239.201L204.534 203.574Z" fill="white"/>
<path d="M218.605 193.155C218.605 193.155 235.742 202.347 236.11 205.153C236.477 207.96 227.388 203.927 225.424 203.44C224.132 203.129 222.816 202.924 221.49 202.827L208.394 203.18L218.605 193.155Z" fill="#CF6F80"/>
<path opacity="0.1" d="M244.838 119.007C245.834 119.007 246.642 118.201 246.642 117.207C246.642 116.213 245.834 115.407 244.838 115.407C243.842 115.407 243.035 116.213 243.035 117.207C243.035 118.201 243.842 119.007 244.838 119.007Z" fill="black"/>
<path d="M244.838 118.273C245.834 118.273 246.642 117.468 246.642 116.474C246.642 115.48 245.834 114.674 244.838 114.674C243.842 114.674 243.035 115.48 243.035 116.474C243.035 117.468 243.842 118.273 244.838 118.273Z" fill="#3F3D56"/>
<path opacity="0.1" d="M248.158 196.915C249.153 196.915 249.961 196.109 249.961 195.115C249.961 194.121 249.153 193.315 248.158 193.315C247.162 193.315 246.354 194.121 246.354 195.115C246.354 196.109 247.162 196.915 248.158 196.915Z" fill="black"/>
<path d="M248.158 196.175C249.153 196.175 249.961 195.369 249.961 194.375C249.961 193.381 249.153 192.575 248.158 192.575C247.162 192.575 246.354 193.381 246.354 194.375C246.354 195.369 247.162 196.175 248.158 196.175Z" fill="#3F3D56"/>
<path d="M246.635 157.227C247.631 157.227 248.438 156.422 248.438 155.428C248.438 154.434 247.631 153.628 246.635 153.628C245.639 153.628 244.832 154.434 244.832 155.428C244.832 156.422 245.639 157.227 246.635 157.227Z" fill="#3F3D56"/>
<path d="M288.202 202.454C288.202 202.454 289.431 204.293 288.202 205.153C286.973 206.013 288.322 208.093 288.322 208.093C288.322 208.093 285.257 209.886 286.606 211.499C287.955 213.112 287.1 220.398 287.1 220.398L283.413 226.49C283.413 226.49 283.634 230.416 283.647 235.722C283.647 244.001 283.16 255.639 280.462 260.945L280.836 304.478C280.836 304.478 267.926 309.184 257.12 307.751L255.517 237.895C255.517 237.895 257.855 198.281 258.716 190.682C259.221 186.737 259.426 182.76 259.331 178.784C259.331 178.784 258.963 166.893 257.728 161.373C257.728 161.373 256.392 137.464 256.259 130.845C256.199 127.679 256.366 118.44 256.553 109.655C256.76 100.05 256.993 90.991 256.993 90.991L254.556 71.7406C254.556 71.7406 256.993 71.494 257.728 72.4739C258.057 72.7807 258.415 73.0552 258.797 73.2937C263.004 76.1333 277.87 84.8653 277.87 84.8653C277.87 84.8653 286.098 88.1314 288.068 92.8107C290.038 97.49 291.408 100.809 292.363 102.143C293.318 103.476 293.839 109.741 293.839 109.741C293.839 109.741 296.67 121.273 298.881 123.226C301.091 125.179 302.708 137.604 302.708 137.604L283.173 152.935C283.173 152.935 281.457 178.437 281.089 179.424C280.722 180.41 288.202 202.454 288.202 202.454Z" fill="white"/>
<path d="M288.943 202.454C288.943 202.454 290.165 204.293 288.943 205.153C287.721 206.013 289.057 208.093 289.057 208.093C289.057 208.093 286.011 209.906 287.347 211.519C288.683 213.132 287.841 220.418 287.841 220.418L284.155 226.51C284.155 226.51 284.375 230.436 284.395 235.742C284.395 244.021 283.908 255.659 281.209 260.965L281.577 304.498C281.577 304.498 268.647 309.204 257.855 307.771L256.259 237.915C256.259 237.915 258.596 198.301 259.458 190.702C259.962 186.757 260.165 182.78 260.065 178.804C260.065 178.804 259.698 166.913 258.469 161.393C258.469 161.393 257.133 137.484 256.993 130.865C256.933 127.699 257.107 118.46 257.287 109.675C257.494 100.07 257.728 91.011 257.728 91.011L254.509 71.5007C254.509 71.5007 257.728 71.5007 258.469 72.4938C258.795 72.8043 259.153 73.0791 259.538 73.3137C263.745 76.1533 278.618 84.8853 278.618 84.8853C278.618 84.8853 286.839 88.1514 288.81 92.8307C290.78 97.51 292.149 100.829 293.11 102.163C294.072 103.496 294.58 109.761 294.58 109.761C294.58 109.761 297.411 121.293 299.622 123.246C301.833 125.199 303.429 137.597 303.429 137.597L283.894 152.928C283.894 152.928 282.178 178.431 281.804 179.417C281.43 180.404 288.943 202.454 288.943 202.454Z" fill="white"/>
<path opacity="0.1" d="M265.548 96.6701L267.311 101.803L258.028 111.135C258.235 101.536 258.469 92.4708 258.469 92.4708L255.25 72.9604C255.25 72.9604 258.469 72.9604 259.21 73.9536C259.536 74.2632 259.894 74.5359 260.279 74.7668L268.173 97.4966L265.548 96.6701Z" fill="black"/>
<path d="M264.807 95.197L266.577 100.33L257.294 109.661C257.501 100.056 257.735 90.9977 257.735 90.9977L254.509 71.4873C254.509 71.4873 257.735 71.4873 258.469 72.4805C258.797 72.7891 259.155 73.0638 259.538 73.3004L267.438 96.0235L264.807 95.197Z" fill="white"/>
<path opacity="0.1" d="M264.807 44.4115C264.812 46.8135 264.434 49.2009 263.685 51.4838C263.559 51.5034 263.43 51.4976 263.306 51.4667C263.182 51.4358 263.066 51.3804 262.964 51.3038C262.79 45.3047 259.832 39.6723 256.192 34.8797C255.17 33.4327 253.931 32.1512 252.519 31.0803C251.091 30.0099 249.315 29.5085 247.537 29.6738C245.533 29.9471 243.763 31.3069 241.74 31.4802C239.068 31.7002 236.677 29.8538 234.026 29.7605C232.948 29.7707 231.885 30.0102 230.907 30.4631C229.929 30.916 229.06 31.5718 228.356 32.3867C226.963 34.0313 225.928 35.9472 225.317 38.0125C224.267 41.1443 223.695 44.416 223.621 47.7177C223.587 49.584 223.407 51.9237 221.671 52.6036C221.801 51.231 221.645 49.8462 221.212 48.5371C220.778 47.2279 220.077 46.0228 219.153 44.9981L219.113 44.9581C219.113 44.7715 219.113 44.5982 219.113 44.4115C219.061 41.3837 219.614 38.3759 220.739 35.5636C221.864 32.7512 223.539 30.1906 225.666 28.0311C227.793 25.8716 230.329 24.1564 233.127 22.9856C235.926 21.8148 238.929 21.2118 241.963 21.2118C244.997 21.2118 248.001 21.8148 250.799 22.9856C253.597 24.1564 256.134 25.8716 258.261 28.0311C260.388 30.1906 262.063 32.7512 263.188 35.5636C264.313 38.3759 264.866 41.3837 264.814 44.4115H264.807Z" fill="black"/>
<path d="M251.423 8.19715C247.953 6.56782 244.006 6.25967 240.324 7.33061C238.474 7.8772 236.731 8.76372 234.854 9.21032C230.847 10.1768 226.172 9.13033 222.733 11.47C220.823 12.8031 219.674 14.9094 218.605 16.9558L215.934 22.035C214.478 24.8146 213.009 27.6408 212.401 30.7003C211.793 33.7598 212.16 37.186 214.104 39.6456C215.52 41.4387 217.61 42.5652 219.146 44.2516C220.066 45.2773 220.764 46.4817 221.197 47.7893C221.629 49.0969 221.786 50.4795 221.657 51.8504C223.4 51.1838 223.567 48.8375 223.607 46.9711C223.682 43.6695 224.254 40.3978 225.304 37.266C225.913 35.2 226.948 33.2839 228.342 31.6402C229.047 30.8259 229.917 30.1705 230.894 29.7177C231.872 29.2649 232.935 29.025 234.013 29.0139C236.684 29.1072 239.082 30.9469 241.726 30.727C243.73 30.5603 245.506 29.1939 247.523 28.9273C249.301 28.7593 251.078 29.261 252.505 30.3337C253.917 31.403 255.154 32.6848 256.172 34.1331C259.818 38.9257 262.777 44.5448 262.95 50.5572C263.705 51.1105 264.794 50.3906 265.168 49.5374C265.542 48.6842 265.555 47.6844 266.029 46.8712C266.577 45.9313 267.625 45.4314 268.447 44.7248C270.531 42.9318 271.051 39.9122 270.971 37.1727C270.891 34.4331 270.357 31.6535 270.878 28.9606C271.192 27.3075 271.9 25.7611 272.287 24.128C272.674 22.4949 272.721 20.6619 271.806 19.2554C270.47 17.1891 267.659 16.7825 265.208 16.5892C262.423 16.3492 259.932 16.6558 258.155 14.3162C257.321 13.0953 256.383 11.9489 255.35 10.8901C254.996 10.5434 251.423 8.34379 251.423 8.19715Z" fill="#512E4E"/>
<path opacity="0.1" d="M178.835 148.762L171.856 135.884L169.645 155.754C169.645 155.754 170.874 164.58 170.627 165.933C170.38 167.286 175.663 179.417 175.663 179.417C175.663 179.417 193.113 210.439 200.239 212.039L224.315 194.868L217.931 186.776C217.931 186.776 215.72 185.916 215.166 186.776C215.166 186.776 203.312 166.419 202.083 164.946C200.854 163.473 201.094 160.534 201.094 160.534C201.094 160.534 199.251 158.574 199.865 156.734C200.48 154.894 196.306 148.515 196.306 148.515L200.113 144.963L178.835 148.762Z" fill="black"/>
<path d="M172.223 134.418L170.38 135.884L168.169 155.754C168.169 155.754 169.398 164.58 169.151 165.933C168.904 167.286 174.193 179.417 174.193 179.417C174.193 179.417 191.638 210.439 198.763 212.039L222.846 194.868L216.455 186.776C216.455 186.776 214.244 185.916 213.69 186.776C213.69 186.776 201.836 166.419 200.607 164.946C199.378 163.473 199.625 160.534 199.625 160.534C199.625 160.534 197.782 158.574 198.396 156.734C199.011 154.894 194.83 148.515 194.83 148.515L198.637 144.963L172.223 134.418Z" fill="white"/>
<path opacity="0.1" d="M286.606 212.259C287.941 213.879 287.1 221.151 287.1 221.151L283.413 227.243C283.413 227.243 283.634 231.176 283.647 236.475L277.449 238.408C276.889 238.583 276.296 238.621 275.718 238.52C275.14 238.419 274.594 238.181 274.127 237.827C273.66 237.473 273.284 237.012 273.031 236.484C272.779 235.955 272.656 235.374 272.674 234.789L273.743 200.387L288.202 205.906C286.973 206.76 288.322 208.853 288.322 208.853C288.322 208.853 285.257 210.639 286.606 212.259Z" fill="black"/>
<path d="M287.347 211.519C288.683 213.139 287.841 220.418 287.841 220.418L284.155 226.51C284.155 226.51 284.375 230.436 284.395 235.742L278.084 237.708C277.535 237.878 276.954 237.915 276.388 237.816C275.823 237.716 275.289 237.484 274.832 237.137C274.374 236.79 274.007 236.339 273.759 235.821C273.512 235.304 273.392 234.735 273.409 234.162L274.484 199.654L288.95 205.173C287.714 206.026 289.063 208.113 289.063 208.113C289.063 208.113 286.011 209.906 287.347 211.519Z" fill="white"/>
<path d="M292.136 195.122C292.136 195.122 291.154 201.381 288.696 201.747C286.238 202.114 285.136 211.872 282.685 211.526C280.234 211.179 281.857 202.454 281.944 200.761C282.031 199.068 279.273 192.055 281.336 190.462C283.4 188.869 289.932 190.462 289.932 190.462L292.136 195.122Z" fill="#CF6F80"/>
<path opacity="0.1" d="M297.365 146.922L302 137.59C302 137.59 303.843 144.703 303.843 148.502C303.843 152.301 306.421 152.675 306.421 152.675C306.421 152.675 309.246 156.008 307.757 158.434C306.267 160.86 305.666 166.899 305.666 166.899C305.666 166.899 306.154 178.424 303.943 180.017C301.733 181.61 301.272 185.416 301.272 185.416C301.272 185.416 297.211 192.649 297.338 194.368C297.465 196.088 291.688 207.733 291.688 207.733C291.688 207.733 294.513 193.262 278.051 187.009C278.051 187.009 277.924 182.097 279.153 180.75C280.381 179.404 282.298 178.791 281.096 171.985C279.894 165.179 280.749 157.047 280.749 155.414C280.749 153.781 284.435 143.596 284.435 143.596L297.365 146.922Z" fill="black"/>
<path d="M299.368 136.257L303.415 137.59C303.415 137.59 305.265 144.703 305.265 148.502C305.265 152.301 307.843 152.675 307.843 152.675C307.843 152.675 310.668 156.008 309.179 158.434C307.69 160.86 307.095 166.899 307.095 166.899C307.095 166.899 307.583 178.424 305.372 180.017C303.162 181.61 302.667 185.416 302.667 185.416C302.667 185.416 298.614 192.649 298.74 194.368C298.867 196.088 293.084 207.733 293.084 207.733C293.084 207.733 295.915 193.262 279.446 187.009C279.446 187.009 279.326 182.097 280.555 180.75C281.784 179.404 283.701 178.791 282.498 171.985C281.296 165.179 282.151 157.047 282.151 155.414C282.151 153.781 285.838 143.596 285.838 143.596L299.368 136.257Z" fill="white"/>
<path d="M117.42 215.343H113.233V309.442H117.42V215.343Z" fill="#535461"/>
<path d="M143.733 309.155L143.473 313.395L143.099 319.394L142.945 321.887L142.578 327.886L142.418 330.379L142.044 336.378L137.823 404.414C137.639 407.341 136.345 410.089 134.204 412.097C132.062 414.106 129.234 415.225 126.296 415.226H104.35C101.412 415.224 98.5852 414.106 96.4448 412.097C94.3044 410.088 93.0117 407.341 92.8299 404.414L88.6291 336.331L88.2551 330.332L88.1015 327.839L87.7275 321.84L87.5739 319.347L87.1999 313.348L86.9328 309.109C86.8864 308.293 87.0075 307.476 87.2887 306.708C87.5699 305.941 88.0053 305.239 88.5681 304.645C89.1309 304.052 89.8094 303.579 90.5617 303.257C91.3141 302.934 92.1246 302.768 92.9434 302.77H137.83C138.645 302.777 139.451 302.95 140.197 303.28C140.943 303.61 141.613 304.089 142.166 304.687C142.719 305.286 143.144 305.991 143.413 306.759C143.683 307.528 143.792 308.343 143.733 309.155Z" fill="#3F3D56"/>
<path d="M143.473 313.395L143.099 319.374H87.5472L87.1732 313.395H143.473Z" fill="#9D9CB5"/>
<path d="M142.945 321.867L142.578 327.852H88.0748L87.7008 321.867H142.945Z" fill="#9D9CB5"/>
<path d="M142.418 330.352L142.05 336.331H88.6024L88.2284 330.352H142.418Z" fill="#9D9CB5"/>
<path d="M80.7819 250.611C105.165 268.222 115.343 295.764 115.343 295.764C115.343 295.764 85.9577 294.758 61.5679 277.147C37.178 259.536 27.02 232.001 27.02 232.001C27.02 232.001 56.392 233 80.7819 250.611Z" fill="#345264"/>
<path d="M27 232.001C27 232.001 57.5073 248.898 67.2913 262.889C77.0753 276.88 115.343 295.764 115.343 295.764" stroke="#535461" stroke-width="2" stroke-miterlimit="10"/>
<path d="M96.5231 215.137C109.793 224.715 115.343 239.706 115.343 239.706C115.343 239.706 99.3481 239.159 86.0712 229.581C72.7944 220.002 67.2579 205.005 67.2579 205.005C67.2579 205.005 83.2462 205.551 96.5231 215.137Z" fill="#345264"/>
<path d="M67.2579 205C67.2579 205 83.8607 214.199 89.1834 221.811C94.5062 229.423 115.343 239.701 115.343 239.701" stroke="#535461" stroke-width="2" stroke-miterlimit="10"/>
<path d="M134.611 239.944C119.364 256.668 116.138 278.524 116.138 278.524C116.138 278.524 137.636 273.259 152.87 256.528C168.103 239.797 171.342 217.947 171.342 217.947C171.342 217.947 149.858 223.22 134.611 239.944Z" fill="#345264"/>
<path d="M171.356 216.956C171.356 216.956 151.494 234.1 146.445 245.912C141.396 257.723 116.138 277.527 116.138 277.527" stroke="#535461" stroke-width="2" stroke-miterlimit="10"/>
<defs>
<linearGradient id="paint0_linear_19_45" x1="238.975" y1="414.754" x2="238.975" y2="4.59105" gradientUnits="userSpaceOnUse">
<stop stop-color="#808080" stop-opacity="0.25"/>
<stop offset="0.54" stop-color="#808080" stop-opacity="0.12"/>
<stop offset="1" stop-color="#808080" stop-opacity="0.1"/>
</linearGradient>
</defs>
</svg>
