<svg width="40" height="40" viewBox="0 0 40 40" fill="none" xmlns="http://www.w3.org/2000/svg">
<path fill-rule="evenodd" clip-rule="evenodd" d="M20 0C8.9543 0 0 8.9543 0 20C0 31.0457 8.9543 40 20 40C31.0457 40 40 31.0457 40 20C40 8.9543 31.0457 0 20 0ZM19.9701 21.6828L12.4989 16.2594V27.6917H11.2508C10.5554 27.6917 10.0026 27.1389 10.0026 26.4435V13.8016C10.0026 13.7449 10.0063 13.692 10.0134 13.6427C10.0373 13.4478 10.1093 13.2573 10.2346 13.0884C10.6447 12.5357 11.4471 12.4108 12.0177 12.821L19.9879 18.6159L28.0117 12.7496C28.5645 12.3395 29.349 12.4643 29.7591 13.0349C29.9773 13.329 30.0441 13.6887 29.9729 14.0227V26.4614C29.9729 27.1389 29.4201 27.6917 28.7247 27.6917H27.4766V16.2325L19.9701 21.6828Z" fill="white"/>
</svg>
