<svg width="18" height="18" viewBox="0 0 18 18" fill="none" xmlns="http://www.w3.org/2000/svg">
<path d="M8.99997 10.6275C7.40247 10.6275 6.09747 9.33 6.09747 7.725C6.09747 6.12 7.40247 4.83 8.99997 4.83C10.5975 4.83 11.9025 6.1275 11.9025 7.7325C11.9025 9.3375 10.5975 10.6275 8.99997 10.6275ZM8.99997 5.955C8.02497 5.955 7.22247 6.75 7.22247 7.7325C7.22247 8.715 8.01747 9.51 8.99997 9.51C9.98247 9.51 10.7775 8.715 10.7775 7.7325C10.7775 6.75 9.97497 5.955 8.99997 5.955Z" fill="#054E40" fill-opacity="0.8"/>
<path d="M9.00001 17.07C7.89001 17.07 6.77251 16.65 5.90251 15.8175C3.69001 13.6875 1.24501 10.29 2.16751 6.2475C3.00001 2.58 6.20251 0.9375 9.00001 0.9375C9.00001 0.9375 9.00001 0.9375 9.00751 0.9375C11.805 0.9375 15.0075 2.58 15.84 6.255C16.755 10.2975 14.31 13.6875 12.0975 15.8175C11.2275 16.65 10.11 17.07 9.00001 17.07ZM9.00001 2.0625C6.81751 2.0625 4.01251 3.225 3.27001 6.495C2.46001 10.0275 4.68001 13.0725 6.69001 15C7.98751 16.2525 10.02 16.2525 11.3175 15C13.32 13.0725 15.54 10.0275 14.745 6.495C13.995 3.225 11.1825 2.0625 9.00001 2.0625Z" fill="#054E40" fill-opacity="0.8"/>
</svg>
