<?xml version="1.0" standalone="no"?>
<!DOCTYPE svg PUBLIC "-//W3C//DTD SVG 20010904//EN"
 "http://www.w3.org/TR/2001/REC-SVG-20010904/DTD/svg10.dtd">
<svg version="1.0" xmlns="http://www.w3.org/2000/svg"
 width="1068.000000pt" height="620.000000pt" viewBox="0 0 1068.000000 620.000000"
 preserveAspectRatio="xMidYMid meet">

<g transform="translate(0.000000,620.000000) scale(0.100000,-0.100000)"
fill="#4E8EB1" stroke="none">
<path d="M5025 5503 c-524 -41 -855 -118 -1385 -319 -203 -77 -593 -260 -790
-371 -91 -52 -186 -107 -220 -128 -19 -12 -84 -53 -145 -90 -208 -130 -540
-365 -739 -525 -304 -245 -506 -428 -829 -752 l-249 -249 32 -37 c101 -117
522 -528 690 -672 75 -64 111 -96 148 -130 47 -43 335 -272 436 -347 61 -45
199 -141 306 -213 107 -72 204 -137 216 -144 11 -8 74 -46 140 -84 65 -39 135
-81 154 -93 52 -34 545 -282 620 -311 36 -15 110 -45 165 -68 55 -23 118 -48
140 -55 22 -7 99 -33 170 -57 449 -153 778 -215 1255 -237 281 -13 697 13 934
59 56 11 102 20 102 20 12 0 -762 2125 -791 2170 -27 43 -55 65 -97 75 l-28 7
0 -401 0 -401 -255 0 -255 0 0 950 0 950 255 0 255 0 0 -401 0 -401 28 7 c40
9 70 31 86 63 17 34 766 2095 766 2109 0 15 -305 61 -482 73 -133 9 -534 11
-633 3z m-833 -1432 c103 -27 171 -63 238 -127 63 -60 99 -120 127 -209 17
-55 18 -105 18 -635 0 -570 0 -576 -23 -647 -55 -176 -198 -296 -396 -334
-146 -27 -358 -1 -469 58 -118 63 -210 190 -239 328 -18 85 -18 1105 0 1190
40 194 185 336 385 380 96 21 269 19 359 -4z m-1262 -43 c84 -22 146 -57 196
-110 82 -87 114 -198 114 -394 0 -136 -15 -205 -57 -255 -28 -33 -133 -89
-168 -89 -11 -1 3 -9 30 -19 129 -46 177 -93 212 -206 26 -86 26 -478 0 -575
-30 -112 -86 -172 -191 -207 -44 -14 -113 -17 -498 -21 l-448 -3 0 951 0 952
378 -5 c288 -3 390 -8 432 -19z"/>
<path d="M3953 3733 c-17 -25 -18 -65 -18 -633 0 -563 1 -608 18 -633 22 -34
74 -37 103 -6 18 20 19 47 22 618 3 685 4 674 -65 679 -36 3 -44 -1 -60 -25z"/>
<path d="M2620 3515 l0 -205 49 0 c77 0 92 18 102 126 17 179 -7 266 -77 277
-80 14 -74 31 -74 -198z"/>
<path d="M2620 2739 l0 -261 48 7 c64 9 90 28 99 72 12 57 8 363 -5 395 -12
28 -59 48 -114 48 l-28 0 0 -261z"/>
<path d="M6155 4268 c-352 -969 -390 -1080 -393 -1143 l-3 -70 376 -1035 c207
-569 390 -1077 407 -1127 16 -51 31 -93 34 -93 20 0 396 134 504 180 41 17 92
37 112 45 107 40 585 284 758 387 208 125 476 300 637 418 291 214 609 478
868 720 113 106 463 460 485 491 l19 26 -134 144 c-134 144 -435 432 -595 569
-47 40 -94 81 -105 91 -43 39 -233 196 -280 233 -197 152 -552 405 -634 452
-14 8 -46 28 -71 44 -125 80 -346 207 -499 288 -314 163 -691 322 -976 413
-55 17 -105 33 -110 35 -6 3 -182 -468 -400 -1068z m620 -193 c162 -34 284
-127 350 -267 29 -60 37 -92 46 -182 14 -146 6 -1083 -10 -1145 -20 -77 -61
-150 -117 -210 -100 -109 -243 -161 -439 -161 -258 0 -431 94 -521 283 -50
107 -57 206 -51 795 3 392 7 497 19 537 53 178 177 297 359 345 91 23 264 26
364 5z m1555 -195 l0 -170 -235 0 -235 0 0 -155 0 -155 129 0 c234 0 358 -29
430 -101 84 -85 107 -227 98 -614 -6 -258 -17 -323 -63 -403 -29 -48 -80 -86
-151 -110 -41 -13 -116 -16 -500 -20 l-453 -3 0 950 0 951 490 0 490 0 0 -170z"/>
<path d="M6553 3733 c-17 -25 -18 -70 -18 -638 0 -478 3 -615 13 -632 20 -35
85 -32 109 4 17 25 18 70 18 639 0 588 -1 613 -19 633 -29 31 -81 28 -103 -6z"/>
<path d="M7860 2788 l0 -309 48 6 c103 15 105 21 100 342 -3 255 -1 250 -92
262 l-56 8 0 -309z"/>
</g>
</svg>
